<mxfile host="app.diagrams.net" modified="2023-09-08T04:00:36.604Z" agent="Mozilla/5.0 (Windows NT 10.0; Win64; x64) AppleWebKit/537.36 (KHTML, like Gecko) Chrome/116.0.0.0 Safari/537.36" version="21.7.2" etag="ylVn-eYWX5Bmmz5IWldw" type="github">
  <diagram name="Page-1" id="wE6q5nTAnt9VgcusLdTY">
    <mxGraphModel>
      <root>
        <mxCell id="0" />
        <mxCell id="1" parent="0" />
      </root>
    </mxGraphModel>
  </diagram>
</mxfile>
